<svg width="20" height="20" viewBox="0 0 20 20" fill="none" xmlns="http://www.w3.org/2000/svg">
<path d="M10 10.1875C10.1036 10.1875 10.1875 10.1036 10.1875 10C10.1875 9.89645 10.1036 9.8125 10 9.8125C9.89645 9.8125 9.8125 9.89645 9.8125 10C9.8125 10.1036 9.89645 10.1875 10 10.1875Z" fill="#1E1E1E"/>
<path d="M10 10.1875C10.1036 10.1875 10.1875 10.1036 10.1875 10C10.1875 9.89645 10.1036 9.8125 10 9.8125C9.89645 9.8125 9.8125 9.89645 9.8125 10C9.8125 10.1036 9.89645 10.1875 10 10.1875Z" fill="#1E1E1E"/>
<path d="M10 10.1875C10.1036 10.1875 10.1875 10.1036 10.1875 10C10.1875 9.89645 10.1036 9.8125 10 9.8125C9.89645 9.8125 9.8125 9.89645 9.8125 10C9.8125 10.1036 9.89645 10.1875 10 10.1875Z" stroke="#1E1E1E" stroke-width="1.5"/>
<path d="M15.3125 9.0625C15.8303 9.0625 16.25 9.48223 16.25 10C16.25 10.5178 15.8303 10.9375 15.3125 10.9375C14.7947 10.9375 14.375 10.5178 14.375 10C14.375 9.48223 14.7947 9.0625 15.3125 9.0625Z" fill="#1E1E1E"/>
<path d="M15.3125 9.0625C15.8303 9.0625 16.25 9.48223 16.25 10C16.25 10.5178 15.8303 10.9375 15.3125 10.9375C14.7947 10.9375 14.375 10.5178 14.375 10C14.375 9.48223 14.7947 9.0625 15.3125 9.0625Z" fill="#1E1E1E"/>
<path d="M4.6875 9.0625C5.20527 9.0625 5.625 9.48223 5.625 10C5.625 10.5178 5.20527 10.9375 4.6875 10.9375C4.16973 10.9375 3.75 10.5178 3.75 10C3.75 9.48223 4.16973 9.0625 4.6875 9.0625Z" fill="#1E1E1E"/>
<path d="M4.6875 9.0625C5.20527 9.0625 5.625 9.48223 5.625 10C5.625 10.5178 5.20527 10.9375 4.6875 10.9375C4.16973 10.9375 3.75 10.5178 3.75 10C3.75 9.48223 4.16973 9.0625 4.6875 9.0625Z" fill="#1E1E1E"/>
</svg>
