<svg width="14" height="14" viewBox="0 0 14 14" fill="none" xmlns="http://www.w3.org/2000/svg">
<g clip-path="url(#clip0_33_2243)">
<path d="M7 9.1875C8.20812 9.1875 9.1875 8.20812 9.1875 7C9.1875 5.79188 8.20812 4.8125 7 4.8125C5.79188 4.8125 4.8125 5.79188 4.8125 7C4.8125 8.20812 5.79188 9.1875 7 9.1875Z" stroke="#1E1E1E" stroke-linecap="round" stroke-linejoin="round"/>
<path d="M7 9.1875C8.20812 9.1875 9.1875 8.20812 9.1875 7C9.1875 5.79188 8.20812 4.8125 7 4.8125C5.79188 4.8125 4.8125 5.79188 4.8125 7C4.8125 8.20812 5.79188 9.1875 7 9.1875Z" stroke="#1E1E1E" stroke-linecap="round" stroke-linejoin="round"/>
<path d="M7.11214 11.2716C7.03886 11.2716 6.96503 11.2716 6.89339 11.2716L5.14065 12.25C4.45833 12.0205 3.82546 11.6642 3.27526 11.2L3.2687 9.23125C3.22987 9.17 3.19323 9.1082 3.15933 9.04477L1.41644 8.05219C1.27916 7.35781 1.27916 6.64328 1.41644 5.94891L3.15769 4.95906C3.19323 4.89617 3.22987 4.83383 3.26706 4.77258L3.27581 2.80383C3.82551 2.33824 4.45822 1.9807 5.14065 1.75L6.89065 2.72836C6.96394 2.72836 7.03776 2.72836 7.1094 2.72836L8.85941 1.75C9.54173 1.97952 10.1746 2.33575 10.7248 2.8L10.7314 4.76875C10.7702 4.83 10.8068 4.8918 10.8407 4.95523L12.5825 5.94727C12.7198 6.64164 12.7198 7.35617 12.5825 8.05055L10.8413 9.04039C10.8057 9.10328 10.7691 9.16563 10.7319 9.22688L10.7232 11.1956C10.1738 11.6613 9.5415 12.019 8.85941 12.25L7.11214 11.2716Z" stroke="#1E1E1E" stroke-linecap="round" stroke-linejoin="round"/>
<path d="M7.11214 11.2716C7.03886 11.2716 6.96503 11.2716 6.89339 11.2716L5.14065 12.25C4.45833 12.0205 3.82546 11.6642 3.27526 11.2L3.2687 9.23125C3.22987 9.17 3.19323 9.1082 3.15933 9.04477L1.41644 8.05219C1.27916 7.35781 1.27916 6.64328 1.41644 5.94891L3.15769 4.95906C3.19323 4.89617 3.22987 4.83383 3.26706 4.77258L3.27581 2.80383C3.82551 2.33824 4.45822 1.9807 5.14065 1.75L6.89065 2.72836C6.96394 2.72836 7.03776 2.72836 7.1094 2.72836L8.85941 1.75C9.54173 1.97952 10.1746 2.33575 10.7248 2.8L10.7314 4.76875C10.7702 4.83 10.8068 4.8918 10.8407 4.95523L12.5825 5.94727C12.7198 6.64164 12.7198 7.35617 12.5825 8.05055L10.8413 9.04039C10.8057 9.10328 10.7691 9.16563 10.7319 9.22688L10.7232 11.1956C10.1738 11.6613 9.5415 12.019 8.85941 12.25L7.11214 11.2716Z" stroke="#1E1E1E" stroke-linecap="round" stroke-linejoin="round"/>
</g>
<defs>
<clipPath id="clip0_33_2243">
<rect width="14" height="14" fill="white"/>
</clipPath>
</defs>
</svg>
