<svg width="14" height="15" viewBox="0 0 14 15" fill="none" xmlns="http://www.w3.org/2000/svg">
<path d="M5.6875 12.3125V8.81248H8.3125V12.3125H11.8125V7.06248C11.8125 7.00501 11.8013 6.94809 11.7793 6.89498C11.7574 6.84187 11.7251 6.79361 11.6845 6.75295L7.30953 2.37795C7.2689 2.33727 7.22065 2.305 7.16754 2.28298C7.11442 2.26097 7.05749 2.24963 7 2.24963C6.94251 2.24963 6.88558 2.26097 6.83246 2.28298C6.77935 2.305 6.7311 2.33727 6.69047 2.37795L2.31547 6.75295C2.27485 6.79361 2.24265 6.84187 2.22069 6.89498C2.19873 6.94809 2.18745 7.00501 2.1875 7.06248V12.3125H5.6875Z" stroke="#CBD3DB" stroke-linecap="round" stroke-linejoin="round"/>
</svg>
